<svg version="1.1" xmlns="http://www.w3.org/2000/svg" viewBox="-210.43199462890624 -1076.2294189453125 9184.995419183579 2277.1517578125"><desc>Created with Snap</desc><defs></defs><g><g transform="matrix(13.3985,0,0,13.3985,7005.8624,-795.8264)"><g><g><g><path d="M123.2,34.5L72.6,3.7c-0.3-0.2-0.6-0.3-0.9-0.3L12.5,2c-1.8,0-2.5,2.3-1,3.3l19.5,11.9l-8.6,29.4     c2.1,0.3,4.2,0.7,6.2,1.3c11.7,3.5,20.8,10.6,24.5,20.1l0,0l0,0c8.2-5.9,19.7-7.1,31.5-3.6c2.1,0.6,4.1,1.4,6,2.3l8.6-29.4     l22.1,0.5l-1.7,5.9c-0.9,0-1.8,0.6-2.1,1.5c-0.2,0.7,0,1.5,0.4,2c-1.3,2.2-5.2,8.7-6.9,14.5c0,0,0.4,1.4,3.1,2.3     c2.8,0.7,3.9-0.3,3.9-0.3c1.7-5.8,2-13.4,2.1-15.9c0.7-0.2,1.2-0.7,1.4-1.4c0.3-1-0.1-1.9-1-2.4l1.8-6.2     C124.1,37.5,124.6,35.4,123.2,34.5z M85.5,56.4c-10.1-2.6-20.2-2.9-29.1,0.8C51,49.3,42.3,44,32.4,40.8l5.7-19.3l24,14.7     c0.3,0.2,0.6,0.3,0.9,0.3l28.2,0.7L85.5,56.4z" style="" fill="#6daedb"></path></g></g><g><g><path d="M87.8,72.7c-0.3-0.2-0.7-0.3-1-0.4c0.6,2.7,0.9,5.6,0.9,8.5c0,4.1-0.6,8.1-1.8,11.8H71.5c0.6-3.7,0.9-7.7,0.9-11.8     c0-2.1-0.1-4.1-0.2-6.1c-0.1-1.9-0.4-3.7-0.6-5.5c-2.4,0-4.7,0.3-6.8,0.8c0.1,0.3,0.1,0.7,0.2,1c0.2,1.6,0.4,3.3,0.5,5     c0.1,1.5,0.2,3.1,0.2,4.7c0,4.2-0.3,8.1-1,11.8H34c-0.1-0.7-0.2-1.5-0.3-2.2c-0.2-1.5-0.4-3.1-0.5-4.7c-0.1-1.6-0.2-3.1-0.2-4.8     c0-4.2,0.3-8.1,1-11.8h12.3c-1.2-2.5-2.9-4.8-5.1-6.8h-5.6c0.4-1.2,0.8-2.3,1.2-3.4c-1.9-1.2-3.9-2.2-6.1-3.1     c-0.8,2-1.5,4.2-2.1,6.5H15.6c1.8-3.3,4.1-6.2,6.7-8.8c-0.2,0-0.5-0.1-0.7-0.1l-7.5-1c-2.4,3-4.5,6.3-6.1,9.9     c-0.3,0.6-0.5,1.2-0.8,1.9c-2.1,5.2-3.2,10.8-3.2,16.7s1.1,11.5,3.2,16.7c0.2,0.6,0.5,1.3,0.8,1.9c7.1,15.8,23,26.7,41.3,26.7     s34.2-11,41.3-26.7c0.3-0.6,0.5-1.2,0.8-1.9c2.1-5.2,3.2-10.8,3.2-16.7c0-1.7-0.1-3.3-0.3-4.9L87.8,72.7z M10.8,80.7     c0-4.1,0.6-8.1,1.8-11.8h14.4c-0.6,3.7-0.9,7.7-0.9,11.8c0,2,0.1,3.9,0.2,5.9c0.1,2,0.4,4,0.7,5.9H12.6     C11.4,88.8,10.8,84.8,10.8,80.7z M15.6,99.3h12.9c0.2,0.7,0.4,1.3,0.5,2c0.5,1.8,1.2,3.5,1.8,5.2c1.9,4.5,4.2,8.2,6.9,11     C28.3,114.5,20.3,107.9,15.6,99.3z M49.3,116c-4.2,0-8.6-4.3-11.8-11.6c-0.7-1.6-1.3-3.3-1.9-5.2H63     C59.9,109.7,54.4,116,49.3,116z M60.8,117.5c4-4.2,7.3-10.5,9.3-18.2H83C78.2,107.9,70.3,114.5,60.8,117.5z" style="" fill="#6daedb"></path></g></g></g><desc>Created with Snap</desc><defs></defs></g><g><g transform="matrix(0.512,0,0,-0.512,0,0)"><path d="M305 0L189 0L189 1488L299 1486Q348 1486 399 1489Q450 1493 509 1496Q568 1500 641 1500Q812 1500 922 1456Q1032 1412 1085 1332Q1138 1253 1138 1146Q1138 1076 1114 1004Q1091 932 1041 877Q991 823 912 802Q1003 797 1075 746Q1148 696 1191 617Q1234 539 1234 447Q1234 312 1180 208Q1126 104 995 45Q864 -14 632 -14Q545 -14 452 -9Q359 -3 305 0ZM421 1321L421 851Q448 847 481 845Q514 844 549 844Q584 845 616 845Q649 846 676 846Q778 846 844 912Q911 978 911 1114Q911 1227 831 1281Q751 1335 602 1335Q584 1335 545 1333Q507 1332 471 1329Q435 1326 421 1321ZM421 676L421 177Q438 167 480 162Q522 157 570 155Q619 154 654 154Q815 154 906 213Q997 272 997 423Q997 558 915 619Q834 681 662 681Q634 681 600 681Q567 682 533 681Q500 681 471 680Q442 679 421 676ZM1734 620L1734 0L1498 0L1498 1486Q1516 1486 1533 1486Q1550 1486 1567 1486Q1584 1486 1602 1486Q1673 1486 1770 1494Q1867 1502 1984 1502Q2096 1502 2189 1478Q2282 1455 2350 1404Q2419 1354 2456 1273Q2494 1193 2494 1078Q2494 944 2449 852Q2404 760 2320 707Q2237 654 2122 636Q2081 630 2037 626Q1994 623 1924 621Q1854 620 1734 620ZM1734 1312L1734 788Q1755 785 1798 783Q1842 782 1887 782Q1932 782 1958 782Q2102 782 2180 852Q2258 923 2258 1068Q2258 1154 2229 1212Q2200 1271 2132 1300Q2065 1330 1950 1330Q1892 1330 1835 1325Q1779 1321 1734 1312ZM2598 0L2334 0Q2321 20 2312 41Q2303 62 2280 110Q2249 177 2219 261Q2189 346 2153 426Q2118 506 2072 561Q2026 617 1964 626L2054 696L2194 684Q2253 659 2299 594Q2346 529 2385 443Q2425 358 2461 270Q2498 182 2538 110Q2553 82 2568 54Q2583 27 2598 0ZM3307 1117L2918 0L2670 0L3234 1502L3463 1502L4019 0L3764 0L3393 1117L3351 1260L3307 1117ZM3714 365L2950 365L2990 538L3672 538L3714 365ZM4469 0L4233 0L4233 1486L4469 1486L4469 0ZM5062 0L4848 0L4848 1486L5062 1486L5684 524L5882 154L5812 154L5786 570L5786 1486L6004 1486L6004 0L5780 0L5182 926L4952 1344L5038 1344L5062 894L5062 0ZM6731 -16Q6634 -16 6547 -2Q6461 13 6399 33Q6337 53 6310 70L6359 261Q6397 239 6454 218Q6511 197 6579 183Q6647 170 6717 170Q6854 170 6926 216Q6998 262 6998 366Q6998 436 6962 483Q6926 531 6854 573Q6783 615 6676 666Q6585 711 6499 774Q6414 837 6359 922Q6304 1007 6304 1117Q6304 1225 6346 1298Q6389 1372 6461 1417Q6533 1462 6621 1482Q6710 1502 6803 1502Q6939 1502 7028 1475Q7117 1449 7156 1423L7110 1238Q7059 1270 6990 1295Q6922 1321 6803 1321Q6730 1321 6668 1302Q6606 1283 6568 1244Q6530 1205 6530 1144Q6530 1075 6558 1028Q6587 982 6651 941Q6715 901 6819 847Q6894 808 6967 764Q7040 721 7099 668Q7159 615 7194 546Q7230 478 7230 390Q7230 254 7166 163Q7103 73 6990 28Q6878 -16 6731 -16ZM8060 0L7824 0L7824 1306L7366 1306L7366 1486L8517 1486L8517 1306L8060 1306L8060 0ZM9331 -16Q9124 -20 8973 78Q8822 177 8742 352Q8662 528 8667 754Q8672 1003 8765 1169Q8859 1335 9014 1418Q9170 1501 9361 1502Q9559 1503 9706 1409Q9853 1316 9932 1145Q10012 974 10007 744Q10002 495 9913 327Q9824 160 9673 74Q9522 -12 9331 -16ZM9337 164Q9535 164 9652 313Q9769 463 9769 754Q9769 908 9722 1037Q9676 1167 9583 1245Q9491 1324 9353 1324Q9232 1324 9130 1262Q9028 1200 8966 1071Q8905 942 8905 740Q8905 587 8953 455Q9002 324 9098 244Q9194 164 9337 164ZM10513 620L10513 0L10277 0L10277 1486Q10295 1486 10312 1486Q10329 1486 10346 1486Q10363 1486 10381 1486Q10452 1486 10549 1494Q10646 1502 10763 1502Q10875 1502 10968 1478Q11061 1455 11129 1404Q11198 1354 11235 1273Q11273 1193 11273 1078Q11273 944 11228 852Q11183 760 11099 707Q11016 654 10901 636Q10860 630 10816 626Q10773 623 10703 621Q10633 620 10513 620ZM10513 1312L10513 788Q10534 785 10577 783Q10621 782 10666 782Q10711 782 10737 782Q10881 782 10959 852Q11037 923 11037 1068Q11037 1154 11008 1212Q10979 1271 10911 1300Q10844 1330 10729 1330Q10671 1330 10614 1325Q10558 1321 10513 1312ZM11377 0L11113 0Q11100 20 11091 41Q11082 62 11059 110Q11028 177 10998 261Q10968 346 10932 426Q10897 506 10851 561Q10805 617 10743 626L10833 696L10973 684Q11032 659 11078 594Q11125 529 11164 443Q11204 358 11240 270Q11277 182 11317 110Q11332 82 11347 54Q11362 27 11377 0ZM11779 0L11554 0L11707 1486L12037 1486L12299 650L12376 332L12445 650L12694 1486L13010 1486L13188 0L12954 0L12866 901L12838 1311L12736 901L12443 -14L12302 -14L11994 901L11886 1311L11857 901L11779 0Z" style="" fill="#173753"></path></g></g><g transform="matrix(0.75,0,0,0.75,1273.5063,885.8473)"><g transform="matrix(0.5,0,0,-0.5,0,0)"><path d="M492 339Q601 200 814 200Q1027 200 1135 338Q1244 477 1244 730Q1244 986 1135 1127Q1027 1268 815 1268Q602 1268 492 1126Q383 985 383 730Q383 478 492 339ZM813 -21Q482 -21 290 179Q99 380 99 733Q99 1088 291 1287Q483 1486 814 1486Q1145 1486 1336 1286Q1527 1087 1527 732Q1527 381 1335 180Q1143 -21 813 -21ZM2021 0L1759 0L1759 1099L1970 1099L1999 960Q2167 1126 2372 1126Q2564 1126 2659 1015Q2755 905 2755 695L2755 0L2492 0L2492 663Q2491 796 2449 862Q2407 928 2298 928Q2213 928 2142 884Q2072 841 2040 775Q2021 697 2021 535L2021 0ZM3398 -15Q3285 -15 3210 11Q3136 38 3093 96Q3050 154 3033 234Q3016 314 3016 433L3016 1504L3278 1521L3278 438Q3278 290 3313 237Q3348 185 3449 185Q3499 185 3576 196L3583 9Q3582 9 3558 4Q3535 -1 3513 -5Q3492 -8 3459 -12Q3426 -15 3398 -15ZM3981 0L3719 0L3719 1099L3981 1099L3981 0ZM3982 1259L3719 1259L3719 1483L3982 1483L3982 1259ZM4516 0L4254 0L4254 1099L4465 1099L4494 960Q4662 1126 4867 1126Q5059 1126 5154 1015Q5250 905 5250 695L5250 0L4987 0L4987 663Q4986 796 4944 862Q4902 928 4793 928Q4708 928 4637 884Q4567 841 4535 775Q4516 697 4516 535L4516 0ZM6016 -21Q5751 -21 5603 131Q5456 284 5456 553Q5456 815 5595 970Q5734 1125 5974 1126Q6201 1126 6326 984Q6452 842 6452 607Q6452 590 6451 552Q6451 514 6451 496L5720 496Q5724 342 5804 257Q5885 173 6026 173Q6206 173 6372 267L6409 81Q6244 -21 6016 -21ZM5725 661L6205 661Q6205 795 6144 867Q6083 939 5975 939Q5874 939 5804 869Q5735 799 5725 661ZM7870 -21Q7549 -21 7361 181Q7173 383 7173 739Q7173 1077 7369 1281Q7566 1486 7884 1486Q8141 1486 8319 1367L8234 1162Q8063 1267 7890 1267Q7688 1267 7570 1121Q7453 976 7453 731Q7453 477 7566 338Q7680 199 7890 199Q8074 199 8255 291L8291 79Q8123 -21 7870 -21ZM8986 178Q9119 178 9186 275Q9253 372 9253 553Q9253 736 9186 832Q9119 928 8984 928Q8851 928 8783 831Q8716 735 8716 552Q8716 372 8784 275Q8852 178 8986 178ZM8979 -21Q8735 -21 8595 137Q8455 295 8455 553Q8455 819 8595 972Q8735 1126 8990 1126Q9236 1126 9375 969Q9515 813 9515 553Q9515 290 9374 134Q9233 -21 8979 -21ZM10522 86Q10391 -21 10177 -21Q9963 -21 9832 86Q9702 193 9702 400L9702 1099L9965 1099L9965 410Q9965 287 10016 232Q10068 177 10180 177Q10290 177 10340 231Q10391 286 10391 410L10391 1099L10653 1099L10653 400Q10653 194 10522 86ZM11155 0L10893 0L10893 1099L11113 1099L11147 931Q11255 1104 11460 1104Q11503 1104 11530 1100L11526 881Q11486 887 11443 887Q11298 887 11226 810Q11155 733 11155 596L11155 0ZM12041 -20Q11798 -20 11652 63L11679 260Q11745 224 11847 195Q11949 167 12033 167Q12120 167 12168 199Q12217 232 12218 295Q12218 352 12172 385Q12127 418 11999 467Q11955 483 11942 488Q11790 547 11723 619Q11656 692 11656 816Q11656 966 11764 1046Q11873 1126 12067 1126Q12277 1126 12436 1047L12371 866Q12214 939 12072 939Q11993 939 11948 912Q11904 886 11904 832Q11904 781 11947 752Q11990 724 12115 678Q12119 677 12141 669Q12163 661 12175 656Q12326 601 12397 524Q12468 448 12468 325Q12467 160 12356 70Q12245 -20 12041 -20ZM13183 -21Q12918 -21 12770 131Q12623 284 12623 553Q12623 815 12762 970Q12901 1125 13141 1126Q13368 1126 13493 984Q13619 842 13619 607Q13619 590 13618 552Q13618 514 13618 496L12887 496Q12891 342 12971 257Q13052 173 13193 173Q13373 173 13539 267L13576 81Q13411 -21 13183 -21ZM12892 661L13372 661Q13372 795 13311 867Q13250 939 13142 939Q13041 939 12971 869Q12902 799 12892 661ZM14183 -20Q13940 -20 13794 63L13821 260Q13887 224 13989 195Q14091 167 14175 167Q14262 167 14310 199Q14359 232 14360 295Q14360 352 14314 385Q14269 418 14141 467Q14097 483 14084 488Q13932 547 13865 619Q13798 692 13798 816Q13798 966 13906 1046Q14015 1126 14209 1126Q14419 1126 14578 1047L14513 866Q14356 939 14214 939Q14135 939 14090 912Q14046 886 14046 832Q14046 781 14089 752Q14132 724 14257 678Q14261 677 14283 669Q14305 661 14317 656Q14468 601 14539 524Q14610 448 14610 325Q14609 160 14498 70Q14387 -20 14183 -20Z" style="" fill="#173753"></path></g></g></g></svg>